# xmcd
#
# Track frame offsets: 
#        150
#        16704
#        30942
#        46375
#        67540
#        79244
#        91846
#        112217
#        122521
#        141602
#        155300
#        170698
#        198230
#        214474
#        230187
#        243294
#        262087
#        277968
#        292213
#        311241
#
# Disc length: 4310 seconds
#
# Revision: 1
# Processed by: cddbd v1.5.2PL0 Copyright (c) Steve Scherf et al.
# Submitted via: ExactAudioCopy v1.0b3
#
DISCID=2510d414
DTITLE=Heidy Tamme - Eesti Kullafond
DYEAR=2008
DGENRE=Pop
TTITLE0=Kui me lapsed on kord suured
TTITLE1=Meenutus
TTITLE2=Kord ära lendan
TTITLE3=Minu arm on nagu laul
TTITLE4=Miks seisma jääb aeg
TTITLE5=Lahkumine
TTITLE6=Meenub mulle
TTITLE7=Unistus
TTITLE8=Nukker kitarr
TTITLE9=Sügisesed kirjad
TTITLE10=Aeg minna
TTITLE11=Vikerkaar
TTITLE12=Hoia tundeid
TTITLE13=Vilkuvad majakad
TTITLE14=Las igatsedes keegi
TTITLE15=Õnne algus
TTITLE16=Üksik rändur
TTITLE17=Warum
TTITLE18=Vilja laul operetist Lõbus lesk
TTITLE19=Soovin sulle rõõmurikast jõulu
EXTD=
EXTT0=
EXTT1=
EXTT2=
EXTT3=
EXTT4=
EXTT5=
EXTT6=
EXTT7=
EXTT8=
EXTT9=
EXTT10=
EXTT11=
EXTT12=
EXTT13=
EXTT14=
EXTT15=
EXTT16=
EXTT17=
EXTT18=
EXTT19=
PLAYORDER=
